<svg width="90" height="90" viewBox="0 0 90 90" fill="none" xmlns="http://www.w3.org/2000/svg">
<g clip-path="url(#clip0_1222_1490)">
<path d="M67.3085 17.2958C67.3085 17.2958 61.0945 22.9055 60.4487 23.006C58.5668 23.3002 50.1289 19.3034 48.4253 18.8767C46.7214 18.4497 29.7183 23.8953 28.4561 25.9604C27.194 28.0265 32.2143 32.9062 37.0507 32.2857C41.886 31.6651 49.0672 29.0732 51.1594 31.1832C54.5516 34.6048 64.4505 45.0762 69.1278 49.2414C73.0493 52.7335 84.5496 34.6853 84.5496 34.6853" stroke="white" stroke-width="2" stroke-linejoin="round"/>
<path d="M46.4936 68.0105L40.9082 62.2911" stroke="white" stroke-width="2" stroke-linejoin="round"/>
<path d="M55.7588 64.9209L45.9728 54.2668" stroke="white" stroke-width="2" stroke-linejoin="round"/>
<path d="M64.1653 59.9779L52.5459 47.8361" stroke="white" stroke-width="2" stroke-linejoin="round"/>
<path d="M26.7987 67.9625C28.1452 69.3208 30.3285 69.3208 31.6752 67.9625L34.7392 64.8721C36.0416 63.5585 35.7085 61.41 34.1891 59.8775C32.6696 58.3449 30.5393 58.0088 29.2369 59.3224C30.5393 58.0088 30.2061 55.8601 28.6866 54.3276C27.1671 52.7951 25.037 52.4591 23.7346 53.7727C25.037 52.4591 24.7037 50.3105 23.1843 48.7779C21.6648 47.2454 19.5345 46.9094 18.2323 48.223C19.5345 46.9094 19.2014 44.7608 17.682 43.2282C16.1625 41.6957 14.0322 41.3597 12.7299 42.6733L9.66578 45.7638C8.31925 47.1219 8.31925 49.3241 9.66578 50.6822L26.7987 67.9625Z" stroke="white" stroke-width="2" stroke-linejoin="round"/>
<path d="M33.0737 66.5493L34.1484 67.646L36.7835 70.3037C40.8044 74.3593 44.5573 71.3756 46.4936 68.0105C50.1772 69.9262 54.2945 67.8086 55.7588 64.9209C60.419 67.2423 64.4997 62.4379 64.1653 59.978C69.1996 59.6794 72.5828 53.9069 69.1278 49.2413" stroke="white" stroke-width="2" stroke-linejoin="round"/>
<path d="M5.24084 36.4242L8.92318 40.2744C9.31542 41.6304 10.2223 43.0887 11.1681 44.25" stroke="white" stroke-width="2" stroke-linejoin="round"/>
<path d="M28.6929 25.6924L22.489 19.4315" stroke="white" stroke-width="2" stroke-linejoin="round"/>
<path d="M18.2323 48.223L12.8176 53.8612" stroke="white" stroke-width="2" stroke-linejoin="round"/>
<path d="M18.2323 48.223L12.8176 53.8612" stroke="white" stroke-width="2" stroke-linejoin="round"/>
<path d="M23.7347 53.7727L18.3199 59.4109" stroke="white" stroke-width="2" stroke-linejoin="round"/>
<path d="M29.237 59.3224L23.8223 64.9606" stroke="white" stroke-width="2" stroke-linejoin="round"/>
</g>
<defs>
<clipPath id="clip0_1222_1490">
<rect width="82" height="58" fill="white" transform="translate(4 16)"/>
</clipPath>
</defs>
</svg>
