<svg width="23" height="23" viewBox="0 0 23 23" fill="none" xmlns="http://www.w3.org/2000/svg">
<path opacity="0.8" fill-rule="evenodd" clip-rule="evenodd" d="M0 9.60921C0 4.49761 4.12152 0.344299 9.2179 0.344299C14.3143 0.344299 18.4357 4.49762 18.4357 9.60921V10.6092H16.4357V9.60921C16.4357 5.5914 13.199 2.3443 9.2179 2.3443C5.23683 2.3443 2 5.59141 2 9.60921C2 13.627 5.23676 16.8741 9.2179 16.8741C11.2348 16.8741 13.0576 16.0429 14.3691 14.698L15.0781 13.9709L22.4142 21.3483L20.996 22.7585L15.0528 16.7819C13.4646 18.0885 11.4324 18.8741 9.2179 18.8741C4.12146 18.8741 0 14.7208 0 9.60921Z" fill="#222222"/>
</svg>
